<?xml version="1.0" encoding="UTF-8" standalone="no"?>
<!-- Generator: Adobe Illustrator 16.0.3, SVG Export Plug-In . SVG Version: 6.00 Build 0)  -->

<svg
   version="1.1"
   id="Capa_1"
   x="0px"
   y="0px"
   width="1080"
   height="1080"
   viewBox="0 0 1079.9999 1080"
   enable-background="new 0 0 595.28 841.89"
   xml:space="preserve"
   sodipodi:docname="Logo de Black Hat Organization.svg"
   inkscape:version="1.1 (c68e22c387, 2021-05-23)"
   xmlns:inkscape="http://www.inkscape.org/namespaces/inkscape"
   xmlns:sodipodi="http://sodipodi.sourceforge.net/DTD/sodipodi-0.dtd"
   xmlns="http://www.w3.org/2000/svg"
   xmlns:svg="http://www.w3.org/2000/svg"><defs
   id="defs17" /><sodipodi:namedview
   id="namedview15"
   pagecolor="#ffffff"
   bordercolor="#666666"
   borderopacity="1.0"
   inkscape:pageshadow="2"
   inkscape:pageopacity="0.0"
   inkscape:pagecheckerboard="0"
   showgrid="false"
   fit-margin-top="0"
   fit-margin-left="0"
   fit-margin-right="0"
   fit-margin-bottom="0"
   inkscape:zoom="0.24706315"
   inkscape:cx="252.97176"
   inkscape:cy="795.34321"
   inkscape:window-width="1920"
   inkscape:window-height="1017"
   inkscape:window-x="1912"
   inkscape:window-y="-8"
   inkscape:window-maximized="1"
   inkscape:current-layer="Capa_1" />
<g
   id="g12"
   transform="matrix(5.5895891,0,0,5.5898476,-1127.2197,-1803.9795)">
	<g
   id="g10">
		
		
		<path
   id="path4"
   d="m 298.58594,322.72461 c -53.486,-0.14 -96.45597,42.9718 -96.91797,95.7168 -0.473,53.84 43.06594,97.54023 96.58594,97.49023 52.68,0.046 95.63437,-42.13322 96.60937,-94.69922 1.015,-54.722 -42.96734,-98.36881 -96.27734,-98.50781 z m -0.1836,7.01953 c 50.022,0.085 90.30536,41.09266 89.44336,91.22266 -0.842,48.913 -41.36,89.01773 -91.625,87.92773 -47.935,-1.039 -87.49801,-40.23172 -87.54101,-89.63672 0,-49.406 40.22465,-89.59767 89.72265,-89.51367 z" />
		<path
   fill-rule="evenodd"
   clip-rule="evenodd"
   d="m 370.881,457.048 c -2.614,2.975 -5.449,5.415 -8.467,7.65 -9.955,7.376 -21.087,12.339 -32.86,15.97 -7.832,2.415 -15.816,4.223 -23.942,5.222 -6.893,0.848 -13.781,0.419 -20.633,-0.881 -11.878,-2.255 -23.451,-5.456 -34.42,-10.613 -8.574,-4.032 -16.582,-8.93 -23.356,-15.655 -0.502,-0.498 -1.047,-0.97 -1.447,-1.727 3.776,0.096 7.462,-0.007 11.142,-0.322 6.134,-0.526 12.205,-1.46 18.218,-2.784 0.61,-0.135 0.833,-0.369 0.913,-0.988 0.472,-3.629 0.347,-7.262 0.046,-10.886 -1.501,-18.071 -5.958,-35.546 -10.783,-52.941 -2.354,-8.489 -4.961,-16.904 -7.7,-25.277 -0.542,-1.656 -0.54,-1.674 1.07,-2.472 3.885,-1.926 8.04,-3.051 12.239,-4.007 10.154,-2.312 20.475,-3.397 30.843,-4.119 5.538,-0.385 11.084,-0.846 16.629,-0.761 9.024,0.137 18.035,0.715 27.018,1.675 8.108,0.866 16.163,2.024 24.05,4.157 3.004,0.812 5.942,1.807 8.751,3.175 0.98,0.478 1.26,0.904 0.871,2.064 -4.847,14.481 -9.309,29.078 -12.96,43.912 -2.387,9.693 -4.454,19.45 -5.579,29.379 -0.549,4.847 -0.911,9.71 -0.335,14.589 0.005,0.04 0.008,0.08 0.012,0.119 0.227,2.137 0.225,2.146 2.296,2.589 8.736,1.864 17.554,2.999 26.504,2.935 0.547,-0.006 1.098,-0.003 1.88,-0.003 z"
   id="path8" />
	</g>
</g>
</svg>
