<?xml version="1.0" encoding="utf-8"?>
<!-- Generator: Adobe Illustrator 24.0.1, SVG Export Plug-In . SVG Version: 6.00 Build 0)  -->
<svg version="1.1" xmlns="http://www.w3.org/2000/svg" xmlns:xlink="http://www.w3.org/1999/xlink" x="0px" y="0px"
	 viewBox="0 0 492 110" style="enable-background:new 0 0 492 110;" xml:space="preserve">
<style type="text/css">
	.st0{fill:#FF0000;}
	.st1{fill:#FFFFFF;}
	.st2{font-family:'Arial-Black';}
	.st3{font-size:55.7558px;}
	.st4{font-size:52.279px;}
</style>
<g id="Layer_1" xmlns:v="https://vecta.io/nano">
	<path class="st0" d="M154.3,17.5c-1.8-6.7-7.1-12-13.8-13.8c-12.1-3.3-60.8-3.3-60.8-3.3S31,0.5,18.9,3.8
		c-6.7,1.8-12,7.1-13.8,13.8C1.4,39.1,0,71.9,5.2,92.5c1.8,6.7,7.1,12,13.8,13.8c12.1,3.3,60.8,3.3,60.8,3.3s48.7,0,60.8-3.3
		c6.7-1.8,12-7.1,13.8-13.8C158.3,71,159.5,38.2,154.3,17.5z"/>
	<path class="st1" d="M64.2,78.4L104.6,55L64.2,31.6V78.4z"/>
</g>
<g id="Layer_2">
	<text transform="matrix(0.3576 0 0 1 166.9995 50.9028)" class="st1 st2 st3">WHERE_IS_THE_CYBERPUNK </text>
	<text transform="matrix(0.491 0 0 1 168.999 99.8545)" class="st1 st2 st4">WE_WERE_PROMISED?</text>
</g>
</svg>
