<?xml version="1.0" encoding="utf-8"?>
<!-- Generator: Adobe Illustrator 24.0.1, SVG Export Plug-In . SVG Version: 6.00 Build 0)  -->
<svg version="1.1" id="Layer_1" xmlns="http://www.w3.org/2000/svg" xmlns:xlink="http://www.w3.org/1999/xlink" x="0px" y="0px"
	 viewBox="0 0 2168 2500" style="enable-background:new 0 0 2168 2500;" xml:space="preserve">
<style type="text/css">
	.st0{fill:#FFFFFF;}
	.st1{fill:url(#SVGID_1_);}
</style>
<circle class="st0" cx="1056.9" cy="1222.9" r="800"/>
<radialGradient id="SVGID_1_" cx="1084.123" cy="492.9165" r="1466.9049" gradientTransform="matrix(0.9913 0 0 0.9913 -17.7415 7.2517)" gradientUnits="userSpaceOnUse">
	<stop  offset="0" style="stop-color:#FF7854"/>
	<stop  offset="1" style="stop-color:#FD267D"/>
</radialGradient>
<circle class="st1" cx="1056.9" cy="1222.9" r="727.1"/>
<path class="st0" d="M912.8,1153.9c-1.1,0-1.9,0-2.6-0.7c-25.3-33.5-31.6-91.1-33.1-113.1c-0.4-4.3-5.2-6.5-8.9-4.5
	c-78.1,43.7-150.6,147.5-150.6,247.5c0,172.4,119.6,316.9,325.5,316.9c192.9,0,325.5-148.8,325.5-316.7
	c0-219.6-156.8-365.1-296.4-430.9c-3.7-1.9-7.8,1.3-7.4,5.2c18.2,118.5-6.7,247-151.9,296.6L912.8,1153.9z"/>
</svg>
